<?xml version="1.0" encoding="utf-8"?>
<!-- Generator: Adobe Illustrator 26.3.1, SVG Export Plug-In . SVG Version: 6.00 Build 0)  -->
<svg version="1.1" id="Layer_1" xmlns="http://www.w3.org/2000/svg" xmlns:xlink="http://www.w3.org/1999/xlink" x="0px" y="0px"
	 width="300px" height="300px" viewBox="0 0 300 300" style="enable-background:new 0 0 300 300;" xml:space="preserve">
<style type="text/css">
	.st0{fill:#F490A5;}
	.st1{fill:#CFB6D7;}
	.st2{fill:#F5C2CB;}
	.st3{fill:#231F20;}
</style>
<g>
	<path class="st0" d="M161.2,99c0.3-0.1,0.6-0.1,0.9-0.2c4.4-1.3,6.9-6,5.6-10.4c-1.3-4.4-6-6.9-10.4-5.6c-0.3,0.1-0.6,0.2-0.9,0.3
		c0,0-0.1-0.1-0.1-0.1c0,0-0.1-0.1-0.1-0.1c0.1-0.3,0.2-0.6,0.3-0.9c1.1-4.5-1.7-9-6.2-10.1c-4.5-1.1-9,1.7-10.1,6.2
		c-0.1,0.3-0.1,0.6-0.2,0.9c-0.1,0-0.1,0-0.2,0.1c-0.1,0-0.1,0-0.2,0.1c-0.2-0.2-0.4-0.5-0.6-0.7c-3.4-3.2-8.7-3-11.8,0.3
		c-3.2,3.4-3,8.7,0.3,11.8c0.2,0.2,0.5,0.4,0.7,0.6c0,0.1,0,0.1,0,0.2c0,0.1,0,0.1,0,0.2c-0.3,0.1-0.6,0.1-0.9,0.2
		c-4.4,1.3-6.9,6-5.6,10.4c1.3,4.4,6,6.9,10.4,5.6c0.3-0.1,0.6-0.2,0.9-0.3c0,0,0.1,0.1,0.1,0.1c0,0,0.1,0.1,0.1,0.1
		c-0.1,0.3-0.2,0.6-0.3,0.9c-1.1,4.5,1.7,9,6.2,10.1c4.5,1.1,9-1.7,10.1-6.2c0.1-0.3,0.1-0.6,0.2-0.9c0.1,0,0.1,0,0.2-0.1
		c0.1,0,0.1,0,0.2-0.1c0.2,0.2,0.4,0.5,0.6,0.7c3.4,3.2,8.7,3,11.8-0.3s3-8.7-0.3-11.8c-0.2-0.2-0.5-0.4-0.7-0.6c0-0.1,0-0.1,0-0.2
		C161.2,99.1,161.2,99.1,161.2,99z M146.7,102c-3.7,1.1-7.6-1-8.8-4.7c-1.1-3.7,1-7.6,4.7-8.8c3.7-1.1,7.6,1,8.8,4.7
		C152.6,97,150.4,100.9,146.7,102z"/>
	<path class="st1" d="M109.8,218.9c0.3-0.1,0.6-0.1,0.9-0.2c4.4-1.3,6.9-6,5.6-10.4c-1.3-4.4-6-6.9-10.4-5.6
		c-0.3,0.1-0.6,0.2-0.9,0.3c0,0-0.1-0.1-0.1-0.1c0,0-0.1-0.1-0.1-0.1c0.1-0.3,0.2-0.6,0.3-0.9c1.1-4.5-1.7-9-6.2-10.1
		c-4.5-1.1-9,1.7-10.1,6.2c-0.1,0.3-0.1,0.6-0.2,0.9c-0.1,0-0.1,0-0.2,0.1c-0.1,0-0.1,0-0.2,0.1c-0.2-0.2-0.4-0.5-0.6-0.7
		c-3.4-3.2-8.7-3-11.8,0.3c-3.2,3.4-3,8.7,0.3,11.8c0.2,0.2,0.5,0.4,0.7,0.6c0,0.1,0,0.1,0,0.2c0,0.1,0,0.1,0,0.2
		c-0.3,0.1-0.6,0.1-0.9,0.2c-4.4,1.3-6.9,6-5.6,10.4c1.3,4.4,6,6.9,10.4,5.6c0.3-0.1,0.6-0.2,0.9-0.3c0,0,0.1,0.1,0.1,0.1
		c0,0,0.1,0.1,0.1,0.1c-0.1,0.3-0.2,0.6-0.3,0.9c-1.1,4.5,1.7,9,6.2,10.1c4.5,1.1,9-1.7,10.1-6.2c0.1-0.3,0.1-0.6,0.2-0.9
		c0.1,0,0.1,0,0.2-0.1c0.1,0,0.1,0,0.2-0.1c0.2,0.2,0.4,0.5,0.6,0.7c3.4,3.2,8.7,3,11.8-0.3c3.2-3.4,3-8.7-0.3-11.8
		c-0.2-0.2-0.5-0.4-0.7-0.6c0-0.1,0-0.1,0-0.2C109.7,219.1,109.7,219,109.8,218.9z M95.2,221.9c-3.7,1.1-7.6-1-8.8-4.7
		c-1.1-3.7,1-7.6,4.7-8.8c3.7-1.1,7.6,1,8.8,4.7C101.1,216.9,99,220.8,95.2,221.9z"/>
	<path class="st2" d="M266.1,187.8c0.3-0.1,0.6-0.1,0.9-0.2c4.4-1.3,6.9-6,5.6-10.4c-1.3-4.4-6-6.9-10.4-5.6
		c-0.3,0.1-0.6,0.2-0.9,0.3c0,0-0.1-0.1-0.1-0.1c0,0-0.1-0.1-0.1-0.1c0.1-0.3,0.2-0.6,0.3-0.9c1.1-4.5-1.7-9-6.2-10.1
		c-4.5-1.1-9,1.7-10.1,6.2c-0.1,0.3-0.1,0.6-0.2,0.9c-0.1,0-0.1,0-0.2,0.1c-0.1,0-0.1,0-0.2,0.1c-0.2-0.2-0.4-0.5-0.6-0.7
		c-3.4-3.2-8.7-3-11.8,0.3c-3.2,3.4-3,8.7,0.3,11.8c0.2,0.2,0.5,0.4,0.7,0.6c0,0.1,0,0.1,0,0.2c0,0.1,0,0.1,0,0.2
		c-0.3,0.1-0.6,0.1-0.9,0.2c-4.4,1.3-6.9,6-5.6,10.4c1.3,4.4,6,6.9,10.4,5.6c0.3-0.1,0.6-0.2,0.9-0.3c0,0,0.1,0.1,0.1,0.1
		c0,0,0.1,0.1,0.1,0.1c-0.1,0.3-0.2,0.6-0.3,0.9c-1.1,4.5,1.7,9,6.2,10.1c4.5,1.1,9-1.7,10.1-6.2c0.1-0.3,0.1-0.6,0.2-0.9
		c0.1,0,0.1,0,0.2-0.1c0.1,0,0.1,0,0.2-0.1c0.2,0.2,0.4,0.5,0.6,0.7c3.4,3.2,8.7,3,11.8-0.3c3.2-3.4,3-8.7-0.3-11.8
		c-0.2-0.2-0.5-0.4-0.7-0.6c0-0.1,0-0.1,0-0.2C266.1,188,266.1,187.9,266.1,187.8z M251.6,190.8c-3.7,1.1-7.6-1-8.8-4.7
		c-1.1-3.7,1-7.6,4.7-8.8c3.7-1.1,7.6,1,8.8,4.7C257.4,185.8,255.3,189.7,251.6,190.8z"/>
	<g>
		<g>
			<path class="st3" d="M94.7,92.1c-1.8,0.7-3.1,2.4-3.8,4.1c-1.1,2.5-2.5,10.8,2.1,11.1c2.1,0.1,3.3-2.3,4.1-3.9
				c0-0.1,0.1-0.1,0.1-0.2c1.3-2.6,3.2-7.6,0.9-10.2C97.3,92.1,96,91.7,94.7,92.1z"/>
			<path class="st3" d="M85,88.5c-4.3-2.6-7.8,4.8-8.3,7.9c-0.4,2.2-0.6,5.6,2,6.4c3.1,0.9,5.7-4.9,6.6-7c0.3-0.6,0.5-1.3,0.7-1.9
				C86.6,92,87,89.7,85,88.5z"/>
			<path class="st3" d="M115.7,162.5c-2.8-7.7-3.5-29.6-1.8-52.1c1.4-18.7-4.7-30.6-18.2-35.6c-21.5-7.9-33.4,12-42.9,27.9
				c-2,3.4-3.9,6.5-5.8,9.3c-6.2,9-15.1,16.8-21,21.9c-5.2,4.5-7,6.2-7.1,7.7c0,0.4,0.1,0.8,0.3,1.1c1.3,2.5,3.4,4.2,6.5,5.5
				c0.1,0,0.2,0.1,0.2,0.1c7.1,2.8,8.4,3.5,10.7,6.2c1.2,1.3,1.7,2.6,1.6,3.7c-0.1,1-0.7,1.7-1.3,2.1c-0.1,0.1-0.1,0.1-0.2,0.2
				c-1.3,1-2.3,2.3-2.5,4.2c-0.2,1.5,0.3,2.9,1.4,4c2.1,2.1,6.3,2.9,12.9,2.4c0.1,0,0.2,0,0.3,0c2.6-0.2,5.9,0.2,7.7,2.1
				c1.2,1.2,1.6,3,1.2,5.4c0,0,0,0,0,0c0,0.1-0.1,0.2-0.1,0.3c-0.2,1.2,0.2,2.5,1.1,3.8c0,0,0,0.1,0.1,0.1c0.9,1,2.3,1.9,4,2.6
				c3.6,1.6,8.2,2.3,10,1.2c0.6-0.4,1-1,1-1.7c0-0.1,0.1-0.2,0.1-0.4c0-3.1,1.9-5,3.6-5.7c1.8-0.8,3.8-0.5,5,0.8
				c0.1,0.1,0.2,0.2,0.4,0.2c0.6,0.6,1.2,1.2,1.7,1.8c2.7,2.9,5.3,5.7,8.5,4.3c0.2-0.1,0.3-0.2,0.5-0.4c1.8-2.1,2.2-6.9,2.1-12
				c1.5,0.3,5,0.5,8.6-3.4c2-2.3,4.2-3,6.2-3.7c1.8-0.6,3.6-1.2,4.9-2.8C115.8,163.4,115.8,162.9,115.7,162.5z M109.8,164.1
				c-2.2,0.7-4.9,1.6-7.3,4.4c-3.3,3.8-6.3,2.6-6.4,2.6c-0.1,0-0.2-0.1-0.3-0.1c-0.3-5.7-1.2-11.2-1.6-13.3c-1-5,0.6-9.1,2-12.3
				c0.2-0.6,0.5-1.2,0.7-1.7c0.2-0.7-0.1-1.4-0.7-1.6c-0.7-0.2-1.4,0.1-1.6,0.7c-0.2,0.5-0.4,1.1-0.7,1.7c-1.4,3.4-3.3,8-2.1,13.8
				c1.4,7.1,2.7,21.7,0.3,25.5c-1.3,0.3-2.9-1.2-5.3-3.8c-3.4-3.7-8.1-8.7-14.9-5.9c0.8-1.8,2.3-3.6,3.8-5.5
				c1.3-1.7,2.7-3.4,3.8-5.2c3.9-6.6,4-11.3,4.1-16.3c0.1-5,0.2-10.1,4-18.1c0.3-0.6,0-1.4-0.6-1.7c0,0,0,0,0,0
				c-0.6-0.3-1.4,0-1.7,0.6c-4,8.5-4.1,14.1-4.2,19.1c-0.1,4.8-0.2,9-3.7,15c-1,1.7-2.3,3.3-3.6,4.9c-2.8,3.5-5.7,7.2-5,11.2
				c0,1.5,0.8,3,1.6,4.2c0.4,0.7,0.8,1.4,1.1,2.2c-1.8,0.4-8.2-1.1-10.3-3.4c-0.5-0.7-0.7-1.3-0.6-1.7c0.2-0.9,1.4-1.7,2.5-2.4
				c0.5-0.3,1-0.6,1.5-1c0,0,0,0,0,0c0,0,0,0,0,0c4.7-4,4.4-7.7,3.9-13.4c-0.1-1.2-0.2-2.5-0.3-4c-0.3-7.2,4.9-13.3,6.5-15.2
				l0.2-0.3c0.5-0.5,0.4-1.3-0.2-1.8c-0.5-0.5-1.3-0.4-1.8,0.2l-0.2,0.3c-5,5.8-7.4,11.6-7.2,17c0.1,1.5,0.2,2.9,0.3,4.1
				c0.3,4.2,0.5,6.8-1.2,9.2c0-0.1-0.1-0.2-0.1-0.2c-0.9-1.4-4-4.4-13.5-3.4c-9.4,1-12.4-0.5-13.4-1.4c-0.5-0.5-0.7-1.1-0.6-1.9
				c0.3-3.1,4.5-3.9,5.7-4.1c0.3,0,0.5-0.1,0.8-0.1c0,0,0.1,0,0.1,0c9.5-2.5,10.9-9.3,12.4-16.5c0.5-2.3,1-4.6,1.7-7
				c2.9-9.1,7.7-13.8,10-16.1l0.5-0.5c0.5-0.5,0.5-1.3,0-1.8c-0.5-0.5-1.3-0.5-1.8,0l-0.5,0.5c-2.5,2.4-7.6,7.4-10.6,17.1
				c-0.8,2.5-1.3,4.9-1.8,7.3c-1.2,6-2.2,10.6-7,13.2c-0.2-3.1-3.8-7-10.6-8.5c-8.9-1.9-12.5-3.6-14.3-6.8c0.6-1,3.4-3.5,6.2-5.8
				c6-5.2,15.1-13.1,21.4-22.4c1.9-2.8,3.8-6,5.9-9.4c9.5-15.9,20.3-34,39.9-26.8c12.3,4.5,17.9,15.6,16.6,33
				c-1.7,22.5-1,43.7,1.7,52.4C112.2,163.3,111.1,163.7,109.8,164.1z"/>
		</g>
		<g>
			<path class="st3" d="M150.7,150.6c-1.2-0.5-2.5-0.2-3.4,0.7c-2.4,2.4-0.8,7.6,0.3,10.2c0,0.1,0,0.1,0.1,0.2
				c0.7,1.7,1.8,4.2,3.9,4.2c4.6,0,3.7-8.4,2.7-11C153.6,153.2,152.4,151.4,150.7,150.6z"/>
			<path class="st3" d="M160.6,147.6c-2.1,1.1-1.8,3.4-1.3,5.3c0.2,0.7,0.4,1.3,0.6,1.9c0.8,2.2,3,8.2,6.2,7.4
				c2.7-0.6,2.6-4.1,2.4-6.3C168.1,152.8,165.1,145.2,160.6,147.6z"/>
			<path class="st3" d="M217,196.3c-5.6-5.5-14.1-13.7-19.7-23.1c-1.7-2.8-3.4-6.1-5.2-9.6c-8.6-16.5-19.3-36.9-41.3-30.3
				c-13.8,4.1-20.6,15.7-20.2,34.5c0.4,22.6-1.6,44.4-4.8,51.9c-0.2,0.4-0.1,0.9,0.2,1.3c1.2,1.6,2.9,2.3,4.7,3c2,0.8,4.1,1.7,6,4
				c3.3,4.2,6.8,4.2,8.3,3.9c-0.4,5-0.2,9.8,1.4,12.1c0.1,0.2,0.3,0.3,0.4,0.4c3.1,1.6,5.8-1,8.7-3.8c0.6-0.6,1.2-1.2,1.8-1.7
				c0.1-0.1,0.3-0.1,0.4-0.2c1.4-1.2,3.3-1.4,5.1-0.5c1.7,0.8,3.4,2.8,3.3,5.9c0,0.1,0,0.3,0,0.4c0,0.7,0.3,1.3,0.9,1.7
				c1.7,1.2,6.4,0.7,10.1-0.6c1.7-0.6,3.2-1.5,4.1-2.4c0,0,0,0,0.1-0.1c1.1-1.2,1.5-2.5,1.4-3.7c0-0.1-0.1-0.2-0.1-0.3c0,0,0,0,0,0
				c-0.2-2.3,0.3-4.1,1.5-5.3c1.9-1.8,5.3-2,7.8-1.6c0.1,0,0.2,0,0.3,0c6.6,0.8,10.9,0.3,13.1-1.6c1.1-1,1.7-2.3,1.6-3.9
				c-0.1-1.9-1-3.4-2.2-4.4c0-0.1-0.1-0.1-0.2-0.2c-0.5-0.4-1.1-1.2-1.2-2.2c0-1.1,0.6-2.4,1.8-3.6c2.5-2.5,3.9-3.2,11.1-5.6
				c0.1,0,0.2-0.1,0.2-0.1c3.1-1.1,5.3-2.7,6.8-5.1c0.2-0.3,0.4-0.7,0.4-1.1C223.6,202.9,221.9,201.2,217,196.3z M206.4,210.3
				c-6.9,1.1-10.7,4.8-11,7.9c-4.7-2.9-5.4-7.5-6.3-13.6c-0.3-2.4-0.7-4.8-1.3-7.4c-2.5-9.9-7.3-15.2-9.6-17.7l-0.5-0.5
				c-0.5-0.5-1.3-0.6-1.8-0.1c-0.5,0.5-0.6,1.3-0.1,1.8l0.5,0.5c2.2,2.4,6.7,7.3,9,16.6c0.6,2.4,1,4.8,1.3,7.1
				c1.1,7.3,2.1,14.1,11.4,17.2c0,0,0.1,0,0.1,0c0.2,0.1,0.5,0.1,0.8,0.2c1.2,0.2,5.3,1.3,5.5,4.4c0,0.8-0.2,1.4-0.7,1.8
				c-1,0.9-4.1,2.2-13.4,0.7c-9.5-1.6-12.7,1.3-13.7,2.6c-0.1,0.1-0.1,0.2-0.1,0.2c-1.5-2.5-1.2-5.1-0.6-9.2
				c0.2-1.2,0.3-2.6,0.5-4.1c0.5-5.4-1.5-11.3-6.2-17.4l-0.2-0.3c-0.4-0.6-1.2-0.7-1.8-0.3c-0.6,0.4-0.7,1.2-0.3,1.8l0.2,0.3
				c1.6,2.1,6.4,8.4,5.7,15.6c-0.1,1.4-0.3,2.8-0.5,4c-0.8,5.6-1.2,9.3,3.2,13.6c0,0,0,0,0,0c0,0,0,0,0,0c0.4,0.4,0.9,0.7,1.4,1.1
				c1.1,0.8,2.3,1.7,2.4,2.5c0.1,0.5-0.2,1-0.7,1.7c-2.3,2.2-8.8,3.3-10.5,2.8c0.3-0.7,0.8-1.4,1.2-2.1c0.8-1.2,1.7-2.6,1.8-4.1
				c1-3.9-1.7-7.7-4.3-11.4c-1.2-1.7-2.4-3.4-3.3-5.1c-3.2-6.2-3-10.4-2.8-15.2c0.2-5,0.4-10.6-3.1-19.3c-0.3-0.6-1-1-1.6-0.7
				c0,0,0,0,0,0c-0.7,0.3-1,1-0.7,1.7c3.3,8.2,3.1,13.3,2.9,18.3c-0.2,5-0.4,9.7,3.1,16.5c1,1.9,2.2,3.7,3.5,5.4
				c1.4,2,2.8,3.9,3.5,5.7c-6.6-3.2-11.6,1.5-15.2,5c-2.5,2.4-4.2,3.9-5.5,3.5c-2.2-3.9-0.1-18.5,1.7-25.5
				c1.5-5.7-0.1-10.4-1.3-13.9c-0.2-0.6-0.4-1.2-0.6-1.7c-0.2-0.7-0.9-1.1-1.6-0.8c-0.7,0.2-1.1,0.9-0.8,1.6
				c0.2,0.6,0.4,1.1,0.6,1.8c1.1,3.3,2.5,7.5,1.2,12.4c-0.6,2.1-1.7,7.5-2.4,13.2c-0.1,0-0.2,0-0.4,0.1c-0.1,0-3.1,1-6.2-2.9
				c-2.3-2.9-4.9-4-7.1-4.8c-1.3-0.5-2.4-1-3.2-1.7c3.2-8.5,5.1-29.6,4.7-52.2c-0.3-17.4,5.9-28.2,18.4-32
				c19.9-6,29.7,12.6,38.3,29.1c1.8,3.5,3.6,6.8,5.3,9.7c5.8,9.7,14.4,18,20.1,23.6c2.6,2.5,5.3,5.1,5.8,6.2
				C219.1,207.4,215.3,208.9,206.4,210.3z"/>
		</g>
		<path class="st3" d="M57.7,207.8c0.5-0.4,2.6-8.3,2.2-12.7c-0.2-2.9-2.9-5.6-5.8-5.3c-3.1,0.2-5.4,2.6-5.4,5.7c0,0.2,0,0.4,0,0.6
			c-0.2,0-0.3-0.1-0.5-0.1c-2.8-0.8-6.2,0.8-6.9,3.7c-0.7,2.9,0.9,5.8,3.8,6.9C50.1,208.4,57.1,208.2,57.7,207.8z"/>
		<path class="st3" d="M145.8,61.6c0.7,0.2,8.1-3,11.4-6c2.1-2,2.6-5.7,0.7-7.8c-2.1-2.3-5.3-2.6-7.8-0.8c-0.2,0.1-0.3,0.2-0.5,0.4
			c-0.1-0.2-0.1-0.3-0.2-0.5c-1.1-2.7-4.4-4.4-7.2-3.2c-2.7,1.2-4.1,4.2-3.1,7.2C140.7,55.9,145.1,61.4,145.8,61.6z"/>
		<g>
			<path class="st3" d="M195.8,58.8c-1.6,1.7-0.7,3.8,0.4,5.5c0.4,0.6,0.8,1.1,1.2,1.7c1.4,1.8,5.4,6.8,8.2,5.1
				c2.3-1.5,1.2-4.7,0.3-6.7C204.6,61.4,199.3,55.1,195.8,58.8z"/>
			<path class="st3" d="M187.3,64.9c-1.3-0.1-2.5,0.6-3,1.7c-1.5,3.1,1.6,7.4,3.6,9.6c0,0,0.1,0.1,0.1,0.1c1.2,1.3,3,3.4,5,2.7
				c4.4-1.5,0.8-9.1-0.9-11.3C190.9,66.3,189.3,65,187.3,64.9z"/>
			<path class="st3" d="M273.6,92.8c-0.5-1.4-2.7-2.5-8.9-5.6c-7-3.4-17.7-8.6-26-15.7c-2.5-2.2-5.2-4.7-8-7.4
				c-13.4-12.9-30-28.9-48.7-15.7c-11.8,8.3-14.6,21.4-8.3,39.1c7.5,21.3,12.5,42.7,11.9,50.8c0,0.5,0.2,0.9,0.5,1.2
				c1.7,1.2,3.5,1.3,5.4,1.4c2.2,0.1,4.4,0.3,7,1.9c4.5,2.9,7.8,1.8,9.2,1.1c1.2,4.9,2.9,9.4,5.2,11c0.2,0.1,0.3,0.2,0.5,0.2
				c3.4,0.6,5.2-2.8,7.1-6.4c0.4-0.7,0.8-1.5,1.2-2.2c0.1-0.1,0.2-0.2,0.3-0.3c0.9-1.5,2.7-2.3,4.7-2.1c1.9,0.2,4.1,1.6,5,4.5
				c0,0.1,0.1,0.2,0.2,0.4c0.2,0.6,0.7,1.1,1.4,1.4c2,0.6,6.3-1.3,9.3-3.8c1.4-1.1,2.6-2.4,3.2-3.6c0,0,0-0.1,0-0.1
				c0.6-1.5,0.6-2.8,0.1-3.9c-0.1-0.1-0.1-0.2-0.2-0.3c0,0,0,0,0,0c-1-2.1-1-4-0.2-5.5c1.2-2.3,4.4-3.6,6.9-4c0.1,0,0.2,0,0.3-0.1
				c6.5-1.3,10.4-3.1,11.9-5.7c0.7-1.3,0.8-2.7,0.3-4.2c-0.7-1.8-2-2.9-3.5-3.5c-0.1,0-0.1-0.1-0.2-0.1c-0.6-0.3-1.4-0.8-1.8-1.7
				c-0.4-1-0.2-2.4,0.6-4c1.6-3.2,2.7-4.3,8.8-8.8c0.1-0.1,0.1-0.1,0.2-0.2c2.6-2.1,4.2-4.2,4.8-7C273.7,93.6,273.7,93.2,273.6,92.8
				z M259,103.8c-6.2,3.2-8.6,7.9-8,11c-5.4-1.2-7.5-5.4-10.2-10.9c-1.1-2.1-2.2-4.4-3.6-6.6c-5.5-8.6-11.7-12.1-14.7-13.7l-0.6-0.3
				c-0.6-0.4-1.4-0.1-1.7,0.5c-0.4,0.6-0.1,1.4,0.5,1.7l0.6,0.3c2.8,1.6,8.7,4.8,13.8,12.9c1.3,2.1,2.4,4.3,3.5,6.3
				c3.3,6.6,6.4,12.7,16.2,12.7c0,0,0.1,0,0.1,0c0.3,0,0.5,0,0.8-0.1c1.2-0.1,5.5-0.4,6.6,2.5c0.3,0.7,0.3,1.4-0.1,2
				c-0.7,1.2-3.2,3.4-12.5,4.9c-9.5,1.5-11.7,5.3-12.2,6.8c0,0.1,0,0.2-0.1,0.3c-2.3-1.9-2.7-4.4-3.5-8.6c-0.2-1.2-0.5-2.5-0.8-4
				c-1.2-5.3-5-10.2-11.4-14.6l-0.3-0.2c-0.6-0.4-1.4-0.3-1.8,0.3c-0.4,0.6-0.3,1.4,0.3,1.8l0.3,0.2c2.2,1.5,8.7,5.9,10.3,13
				c0.3,1.4,0.6,2.7,0.8,3.9c1.1,5.6,1.8,9.2,7.3,11.9c0,0,0,0,0,0c0,0,0,0,0,0c0.5,0.2,1.1,0.4,1.7,0.6c1.3,0.4,2.7,0.8,3.1,1.6
				c0.2,0.4,0.1,1-0.2,1.8c-1.4,2.8-7.2,5.9-9.1,6c0.1-0.8,0.3-1.6,0.5-2.4c0.4-1.4,0.8-3.1,0.4-4.5c-0.3-4-4.1-6.8-7.7-9.5
				c-1.6-1.2-3.4-2.5-4.7-3.8c-5-4.9-6.2-8.9-7.5-13.6c-1.4-4.8-3-10.2-9-17.4c-0.5-0.5-1.2-0.6-1.8-0.2c0,0,0,0,0,0
				c-0.5,0.5-0.6,1.3-0.1,1.8c5.7,6.7,7.2,11.7,8.5,16.4c1.4,4.8,2.7,9.3,8.2,14.7c1.5,1.5,3.3,2.8,5,4c2,1.4,3.8,2.8,5.1,4.3
				c-7.3-1-10.5,5.1-12.8,9.6c-1.6,3.1-2.8,5-4.1,5.1c-3.4-3-5.9-17.5-6.4-24.7c-0.4-5.9-3.4-9.9-5.6-12.8c-0.4-0.5-0.7-1-1.1-1.4
				c-0.4-0.6-1.2-0.7-1.8-0.3c-0.6,0.4-0.7,1.2-0.3,1.8c0.3,0.5,0.7,1,1.1,1.5c2.1,2.8,4.8,6.3,5.1,11.4c0.1,2.2,0.7,7.7,1.9,13.2
				c-0.1,0-0.2,0.1-0.3,0.2c-0.1,0.1-2.7,2-6.8-0.8c-3.1-2-5.9-2.2-8.2-2.4c-1.4-0.1-2.6-0.2-3.6-0.6c0.3-9-4.5-29.7-12.1-51
				c-5.8-16.4-3.3-28.6,7.4-36.2c17-12,32.1,2.6,45.5,15.5c2.8,2.7,5.5,5.3,8.1,7.5c8.6,7.3,19.4,12.6,26.5,16
				c3.3,1.6,6.6,3.2,7.5,4C270.2,97,267.1,99.7,259,103.8z"/>
		</g>
		<path class="st3" d="M268,154.4c0.7,0.1,7.7-4,10.6-7.4c1.9-2.2,1.9-5.9-0.3-7.9c-2.4-2-5.6-2-7.8,0.2c-0.1,0.1-0.3,0.3-0.4,0.4
			c-0.1-0.2-0.2-0.3-0.2-0.5c-1.4-2.6-4.9-3.9-7.5-2.3c-2.6,1.5-3.5,4.7-2.2,7.6C262.3,149.4,267.3,154.3,268,154.4z"/>
		<path class="st3" d="M201.1,246.1c-0.6-0.2-8.3,2.4-11.8,5.2c-2.3,1.8-3,5.5-1.2,7.8c1.9,2.5,5.1,3,7.7,1.3
			c0.2-0.1,0.3-0.2,0.5-0.3c0.1,0.2,0.1,0.3,0.2,0.5c0.9,2.8,4.1,4.7,6.9,3.7c2.8-1,4.4-3.9,3.6-7
			C205.8,252.2,201.8,246.4,201.1,246.1z"/>
		<polygon class="st3" points="135.6,133.7 127.9,135.8 125.8,143.5 123.6,135.8 115.9,133.7 123.6,131.5 125.8,123.8 127.9,131.5 
					"/>
		<polygon class="st3" points="225.2,170.1 217.5,172.2 215.4,179.9 213.2,172.2 205.5,170.1 213.2,167.9 215.4,160.2 217.5,167.9 
					"/>
		<polygon class="st3" points="125.2,245.7 117.5,247.8 115.3,255.5 113.2,247.8 105.5,245.7 113.2,243.5 115.3,235.9 117.5,243.5 
					"/>
		<polygon class="st3" points="110.6,55.8 102.9,58 100.7,65.7 98.6,58 90.9,55.8 98.6,53.7 100.7,46 102.9,53.7 		"/>
		<polygon class="st3" points="263.4,58.2 255.7,60.3 253.5,68 251.4,60.3 243.7,58.2 251.4,56 253.5,48.4 255.7,56 		"/>
	</g>
</g>
</svg>
